PathFileType	4	(X/Y/Z)	./resultDataOpenSim/trcMotMarkerGrf/sub10/qtm-01-02.trc
DataRate	CameraRate	NumFrames	NumMarkers	Units	OrigDataRate	OrigDataStartFrame	OrigNumFrames
250.000000	250.000000	9	24	m	250.000000	284	454
Frame#	Time	L.Toe.Tip			R.Toe.Tip			L.Ankle.Lat			R.Ankle.Lat			L.Ankle.Med			R.Ankle.Med			L.Heel			R.Heel			L.Knee.Lat			R.Knee.Lat			L.Knee.Med			R.Knee.Med			L.Thigh.Upper			R.Thigh.Upper			L.ASIS			R.ASIS			V.Sacral			L.Acromium			R.Acromium			C7			L.Elbow			R.Elbow			L.Wrist.Lat			R.Wrist.Lat
		X1	Y1	Z1	X2	Y2	Z2	X3	Y3	Z3	X4	Y4	Z4	X5	Y5	Z5	X6	Y6	Z6	X7	Y7	Z7	X8	Y8	Z8	X9	Y9	Z9	X10	Y10	Z10	X11	Y11	Z11	X12	Y12	Z12	X13	Y13	Z13	X14	Y14	Z14	X15	Y15	Z15	X16	Y16	Z16	X17	Y17	Z17	X18	Y18	Z18	X19	Y19	Z19	X20	Y20	Z20	X21	Y21	Z21	X22	Y22	Z22	X23	Y23	Z23	X24	Y24	Z24

284	1.132	0.099806472	0.042450177	-0.027122859	0.90721408	0.087069418	0.054905969	-0.0027290439	0.12552676	-0.061304053	0.77423289	0.054712723	0.097429171	0.020210774	0.14568371	0.019316733	0.78130722	0.087634435	0.014877585	-0.071139515	0.13531687	-0.017496517	0.73422646	0.0160351	0.051179845	0.2301218	0.4341085	-0.11675171	0.6763104	0.44613361	0.12771576	0.24579383	0.41119192	0.0037749538	0.67996344	0.4548857	-0.0008571512	0.37033945	0.79829575	-0.18453067	0.5037887	0.81787711	0.18083267	0.46819014	0.89537641	-0.15050885	0.55161014	0.90556382	0.087984207	0.32187663	0.91423936	0.035639905	0.47082732	1.3755908	-0.14713788	0.41659864	1.3629786	0.17448931	0.359309	1.3980389	-0.0060124362	0.50677392	1.0245032	-0.19667919	0.23530944	1.0705665	0.17239399	0.75338637	0.98452889	-0.18938116	0.2292137	0.84439369	0.26317231
285	1.136	0.10064729	0.042538714	-0.027164302	0.91079003	0.0807295	0.053005116	0.00059981692	0.12851023	-0.061947181	0.77712056	0.05413418	0.097009872	0.024430081	0.14800433	0.018452472	0.78458484	0.086156586	0.013979819	-0.067169763	0.13984659	-0.017717536	0.73505884	0.016945446	0.05114019	0.23647343	0.43420528	-0.11694353	0.68294088	0.44473163	0.12683133	0.25348937	0.41091789	0.0029699955	0.68550652	0.45337978	-0.001732566	0.37894917	0.79758947	-0.18432056	0.51245894	0.81790207	0.1811084	0.4771042	0.89469685	-0.15016349	0.56062798	0.90564207	0.088211934	0.32936002	0.91395492	0.035437619	0.4779255	1.3755981	-0.14662784	0.42436439	1.3627177	0.17495413	0.36672074	1.3975166	-0.0053588631	0.51413975	1.0247036	-0.19600898	0.24265819	1.0710545	0.17168526	0.76080997	0.98477013	-0.18861953	0.23470069	0.84504618	0.26280528
286	1.14	0.10158696	0.04261198	-0.027214598	0.91509007	0.07372459	0.05116327	0.0041909991	0.13151347	-0.062674337	0.78067488	0.053978781	0.096615756	0.028938529	0.15028968	0.017477641	0.78839022	0.085215822	0.013148173	-0.062839429	0.14443204	-0.018027654	0.73621435	0.018517441	0.051248376	0.24280772	0.43424726	-0.11715481	0.68945396	0.44345689	0.12601825	0.26140511	0.41048708	0.0021715276	0.69076439	0.45186006	-0.0025392913	0.38772044	0.79682852	-0.18408981	0.52136088	0.81803288	0.18151784	0.48620429	0.89395763	-0.14980214	0.56949773	0.90578105	0.088420888	0.33666135	0.91360992	0.035257797	0.48502154	1.3756617	-0.14613012	0.43220084	1.3624872	0.17542799	0.37407528	1.3970675	-0.0046154359	0.52145441	1.024931	-0.19536227	0.25011041	1.0715526	0.17101838	0.76815489	0.98490325	-0.18787096	0.24031846	0.84571288	0.26246947
287	1.144	0.10260584	0.042654291	-0.027290306	0.91963684	0.066754277	0.049413673	0.0080473577	0.13453221	-0.063495274	0.78458327	0.053963742	0.096292766	0.033726384	0.1525367	0.016385604	0.79237253	0.084510339	0.012452042	-0.058123171	0.14907305	-0.018456513	0.73764911	0.020359481	0.051587257	0.24920929	0.43423116	-0.11739876	0.69600041	0.44251928	0.1252883	0.2693502	0.40983464	0.0015970181	0.69580436	0.45045984	-0.0032300998	0.39664899	0.79601101	-0.18384522	0.53051888	0.81833701	0.18204338	0.49544578	0.89317184	-0.14941618	0.57823586	0.90601634	0.088641529	0.34432012	0.91335338	0.034957358	0.49212501	1.3757902	-0.14565818	0.44009902	1.362295	0.17591288	0.3814172	1.3967133	-0.003885638	0.528724	1.0251827	-0.19473905	0.25766572	1.0720653	0.17040751	0.77542531	0.9849254	-0.18713982	0.24610086	0.84640457	0.26219934
288	1.148	0.10370233	0.042652808	-0.027403387	0.92380199	0.060374032	0.047685951	0.012177883	0.13756922	-0.064408982	0.78833152	0.053936787	0.096156455	0.038804466	0.15472939	0.015152745	0.79615944	0.083814337	0.011941902	-0.052984965	0.15376629	-0.01900402	0.73925573	0.022177601	0.052176554	0.25576306	0.43415239	-0.11768853	0.70269041	0.44207512	0.1246251	0.27715393	0.40891534	0.0014069476	0.70072909	0.44930343	-0.003779479	0.40573057	0.79514255	-0.18360705	0.53991733	0.8188582	0.1825943	0.50475189	0.89236939	-0.14898216	0.58687314	0.9063605	0.088899805	0.35245924	0.91334274	0.034525775	0.49924856	1.3759813	-0.1452188	0.44803379	1.3621434	0.17640858	0.38878911	1.3964281	-0.0032259264	0.5359475	1.0254532	-0.19411987	0.26531694	1.0725891	0.16986392	0.78261823	0.98484092	-0.1864298	0.25205472	0.84711756	0.26198427
289	1.152	0.10490222	0.042602499	-0.027560892	0.92718337	0.054812229	0.045956379	0.016606243	0.14062442	-0.065401698	0.7916158	0.053836239	0.096274793	0.044208765	0.15684375	0.013768397	0.7995731	0.083060831	0.011623533	-0.047388131	0.15850221	-0.019634919	0.74092165	0.023850561	0.05296816	0.26254982	0.43400595	-0.11803639	0.70955702	0.44219951	0.12398595	0.2849087	0.40775533	0.0014944796	0.70564552	0.44847705	-0.0041971784	0.41495194	0.79422854	-0.18339307	0.54949742	0.819597	0.18303858	0.51406378	0.89157356	-0.14847993	0.59544524	0.90679951	0.08920485	0.36082511	0.91363336	0.034087679	0.50639905	1.3762231	-0.14481096	0.45598032	1.3620371	0.17690892	0.39621252	1.3961832	-0.0026136168	0.54311222	1.0257403	-0.19349002	0.27305646	1.0731177	0.16939007	0.78972915	0.98466133	-0.18574661	0.2581556	0.8478299	0.26176158
290	1.156	0.10624739	0.042500564	-0.027764994	0.92984741	0.050199736	0.044391059	0.02137024	0.14367423	-0.066462818	0.79444254	0.053633647	0.096579487	0.04999683	0.15885255	0.012251893	0.80260135	0.082285831	0.011443272	-0.041297044	0.16326138	-0.020295942	0.74254032	0.025331333	0.053848501	0.26964762	0.43378688	-0.1184541	0.71659191	0.44288833	0.12332883	0.29301332	0.40646421	0.0014492507	0.71062713	0.44802119	-0.0045273664	0.42428541	0.79327011	-0.1832152	0.55918698	0.82052828	0.18328836	0.52334888	0.89079687	-0.14790138	0.60399342	0.90729571	0.089543625	0.36918349	0.91417654	0.033743896	0.51357096	1.3764968	-0.14442641	0.46392971	1.3619841	0.17740205	0.40368913	1.3959811	-0.0019876583	0.55020198	1.0260457	-0.19285871	0.28088218	1.0736537	0.16898456	0.79676224	0.98440085	-0.18509955	0.26437541	0.84852187	0.26147552
291	1.16	0.10776279	0.04232979	-0.028013067	0.93223687	0.046719362	0.043293941	0.026518227	0.14666226	-0.067595379	0.79694707	0.053338573	0.096879597	0.056227855	0.16072776	0.010639373	0.80525849	0.081545861	0.011301015	-0.034681296	0.1680152	-0.020937808	0.74401938	0.026568411	0.054650085	0.27713344	0.43349045	-0.11895316	0.72382479	0.44406079	0.12264824	0.30188297	0.4051579	0.00083776798	0.71569291	0.44793113	-0.004840793	0.43368628	0.79226083	-0.18308381	0.56893282	0.82162652	0.18335445	0.53258625	0.89004501	-0.14725337	0.61252339	0.90781696	0.089870016	0.37754397	0.91487339	0.03346248	0.5207458	1.3767794	-0.14405709	0.47188729	1.3619858	0.17787762	0.41120967	1.3958448	-0.0012881531	0.55721265	1.0263645	-0.19224675	0.28879455	1.0742004	0.16864587	0.80373154	0.98406637	-0.18449403	0.27070921	0.84919101	0.26112463
292	1.164	0.10942312	0.042056791	-0.028300902	0.93473672	0.044355172	0.042905625	0.032098262	0.14952085	-0.068804142	0.79915726	0.053023117	0.096995418	0.062930061	0.16244882	0.0089698264	0.80753708	0.080871783	0.011100307	-0.027531761	0.17273858	-0.021532417	0.74529643	0.027514699	0.055192863	0.2850834	0.43311244	-0.1195445	0.73137889	0.44556215	0.12199468	0.31167626	0.40387534	-0.00050647821	0.72082852	0.4481614	-0.0052126469	0.44310058	0.79118833	-0.18300285	0.57870172	0.82286707	0.18331848	0.54175568	0.88931802	-0.1465573	0.62101938	0.90836007	0.090137428	0.38608307	0.91561769	0.033117587	0.52790426	1.3770488	-0.14369745	0.47985982	1.3620339	0.17833225	0.41876976	1.3957914	-0.00050435732	0.56415267	1.0266847	-0.19166496	0.29679131	1.0747488	0.16837016	0.81064245	0.98364435	-0.18391742	0.27717405	0.84984429	0.26074114
